# xmcd
#
# Track frame offsets:
#	150
#	23147
#	39685
#	65672
#
# Disc length: 1180 seconds
#
# Revision: 1
# Processed by: cddbd v1.5PL3 Copyright (c) Steve Scherf et al.
# Submitted via: CDex 1.50Beta5
#
DISCID=31049a04
DTITLE=savage genius - 恋心
DYEAR=2002
DGENRE=Rock
TTITLE0=恋心
TTITLE1=スパイダーガール
TTITLE2=木蓮
TTITLE3=恋心(instrumental)
EXTD=
EXTT0=
EXTT1=
EXTT2=
EXTT3=
PLAYORDER=
